<?xml version="1.0" encoding="UTF-8" standalone="no"?>
<!DOCTYPE svg PUBLIC "-//W3C//DTD SVG 1.1//EN" "http://www.w3.org/Graphics/SVG/1.1/DTD/svg11.dtd">
<svg width="100%" height="100%" viewBox="0 0 213 56" version="1.1" xmlns="http://www.w3.org/2000/svg" xmlns:xlink="http://www.w3.org/1999/xlink" xml:space="preserve" xmlns:serif="http://www.serif.com/" style="fill-rule:evenodd;clip-rule:evenodd;stroke-linejoin:round;stroke-miterlimit:2;">
    <g id="Artboard1" transform="matrix(0.808036,0,0,0.836283,77.2619,8.01848)">
        <rect x="-95.617" y="-9.588" width="263.529" height="66.471" style="fill:none;"/>
        <g id="SvgjsG1721" transform="matrix(0.660036,0,0,0.637742,-91.8314,-6.77467)">
            <path d="M390,18.75C390,8.402 381.598,0 371.25,0L18.75,0C8.402,0 0,8.402 0,18.75L0,78.25C0,88.598 8.402,97 18.75,97L371.25,97C381.598,97 390,88.598 390,78.25L390,18.75Z" style="fill:none;"/>
        </g>
        <g id="SvgjsG1722" transform="matrix(2.68236,0,0,2.59176,-80.4597,-9.54253)">
            <path d="M2.634,20.04L1.016,20.04L1.016,6.444L0.682,6.043L2.634,6.043L2.634,20.04L2.634,20.04ZM5.281,19.947L3.703,19.947L3.703,11.671L3.369,11.27L5.281,11.27L5.281,19.947L5.281,19.947ZM5.281,8.556L5.281,10.361L3.703,10.361L3.703,8.556L5.281,8.556ZM6.31,19.987L6.31,11.604L5.976,11.19L10.013,11.19C10.722,11.19 11.337,11.765 11.337,12.513L11.337,19.987L9.733,19.987L9.733,13.021L7.366,13.021L7.914,13.436L7.914,19.987L6.31,19.987L6.31,19.987ZM13.743,13.73L14.973,11.19L16.751,11.19L14.639,15.602L16.765,20.027L14.973,20.027L13.743,17.473L13.743,20.04L12.139,20.04L12.139,6.457L12.126,6.457L11.791,6.043L13.743,6.043L13.743,13.73L13.743,13.73ZM18.329,11.23L20.722,11.23C21.43,11.23 22.045,11.818 22.045,12.54L22.045,13.971L20.441,13.971L20.441,13.062L18.061,13.062L18.61,13.476L18.61,13.971L22.045,16.471L22.045,18.703C22.045,19.452 21.43,20.027 20.722,20.027L18.329,20.027C17.594,20.027 17.019,19.452 17.019,18.703L17.019,17.273L18.61,17.273L18.61,18.195L20.428,18.195L20.428,17.273L17.005,14.786L17.005,12.54C17.005,11.805 17.58,11.23 18.329,11.23ZM23.81,13.035L24.358,13.436L24.358,18.155L26.177,18.155L26.177,13.035L23.81,13.035L23.81,13.035ZM27.781,12.513L27.781,18.677C27.781,19.385 27.166,20 26.457,20L24.078,20C23.329,20 22.754,19.385 22.754,18.677L22.754,12.513C22.754,11.765 23.329,11.19 24.078,11.19L26.457,11.19C27.206,11.19 27.781,11.805 27.781,12.513ZM29.88,6.043L32.781,6.043L32.781,7.888L29.612,7.888L30.16,8.289L30.16,11.19L32.005,11.19L32.005,13.035L29.612,13.035L30.16,13.449L30.16,20.04L28.556,20.04L28.556,7.366C28.556,6.618 29.131,6.043 29.88,6.043L29.88,6.043ZM35.107,20.04L33.489,20.04L33.489,6.444L33.155,6.043L35.107,6.043L35.107,20.04L35.107,20.04ZM36.965,13.035L37.513,13.436L37.513,18.155L39.332,18.155L39.332,13.035L36.965,13.035L36.965,13.035ZM40.936,12.513L40.936,18.677C40.936,19.385 40.321,20 39.612,20L37.233,20C36.484,20 35.909,19.385 35.909,18.677L35.909,12.513C35.909,11.765 36.484,11.19 37.233,11.19L39.612,11.19C40.361,11.19 40.936,11.805 40.936,12.513ZM41.738,19.987L41.738,11.604L41.404,11.19L45.441,11.19C46.15,11.19 46.765,11.765 46.765,12.513L46.765,19.987L45.16,19.987L45.16,13.021L42.794,13.021L43.342,13.436L43.342,19.987L41.738,19.987L41.738,19.987ZM48.61,12.995L49.158,13.409L49.158,18.142L50.989,18.142L50.989,12.995L48.61,12.995L48.61,12.995ZM48.877,11.15L50.989,11.15L50.989,6.404L50.655,5.989L52.594,6.003L52.594,20L48.877,19.986C48.128,19.986 47.554,19.411 47.554,18.663L47.554,12.473C47.554,11.724 48.128,11.149 48.877,11.149L48.877,11.15ZM54.452,13.035L55,13.436L55,18.155L56.818,18.155L56.818,13.035L54.452,13.035L54.452,13.035ZM58.423,12.513L58.423,18.677C58.423,19.385 57.808,20 57.099,20L54.719,20C53.971,20 53.396,19.385 53.396,18.677L53.396,12.513C53.396,11.765 53.971,11.19 54.719,11.19L57.099,11.19C57.848,11.19 58.423,11.805 58.423,12.513ZM59.225,19.987L59.225,11.604L58.89,11.19L62.928,11.19C63.636,11.19 64.251,11.765 64.251,12.513L64.251,19.987L62.647,19.987L62.647,13.021L60.281,13.021L60.829,13.436L60.829,19.987L59.225,19.987L59.225,19.987ZM66.992,20.04L65.16,20.04L65.16,18.021L66.992,18.021L66.992,20.04ZM69.144,11.217L72.032,11.23L72.032,13.062L68.877,13.062L69.425,13.476L69.425,18.182L72.032,18.182L72.032,20.027L69.144,20.027C68.396,20.027 67.821,19.412 67.821,18.703L67.821,12.54C67.821,11.792 68.396,11.217 69.144,11.217L69.144,11.217ZM73.596,13.035L74.144,13.436L74.144,18.155L75.963,18.155L75.963,13.035L73.596,13.035L73.596,13.035ZM77.567,12.513L77.567,18.677C77.567,19.385 76.952,20 76.243,20L73.864,20C73.115,20 72.54,19.385 72.54,18.677L72.54,12.513C72.54,11.765 73.115,11.19 73.864,11.19L76.243,11.19C76.992,11.19 77.567,11.805 77.567,12.513ZM83.703,11.19L85.495,11.19C86.23,11.19 86.805,11.765 86.805,12.513L86.805,19.987L85.214,19.987L85.214,13.021L82.848,13.021L83.396,13.436L83.396,19.987L81.791,19.987L81.791,13.021L79.425,13.021L79.973,13.436L79.973,19.987L78.369,19.987L78.369,11.604L78.035,11.19L81.243,11.19C81.952,11.19 82.513,11.751 82.554,12.46C82.594,11.818 83.075,11.283 83.703,11.19L83.703,11.19Z" style="fill:rgb(15,23,42);fill-rule:nonzero;"/>
        </g>
    </g>
</svg>
