<svg width="292" height="74" viewBox="0 0 292 74" fill="none" xmlns="http://www.w3.org/2000/svg">
<g clip-path="url(#clip0_752_19743)">
<path d="M0 46.0769C1.12058 42.8756 2.16159 42.2658 5.22494 42.2658H5.68246V53.9309C5.68246 55.959 5.4968 56.3898 3.73968 56.5953C3.51424 56.6218 3.34184 56.814 3.34184 57.0393H10.5162C10.5162 56.814 10.3438 56.6218 10.1184 56.5953C8.36123 56.3898 8.17558 55.959 8.17558 53.9309V42.2658H8.6132C11.6766 42.2658 12.7176 42.8822 13.858 46.0835C13.9376 46.2956 14.1365 46.4414 14.3686 46.4414L13.7984 41.9079C13.7718 41.7025 13.5928 41.55 13.3873 41.5567C11.8622 41.6097 10.1847 41.6097 8.95799 41.6097H4.90667C3.66674 41.6097 1.98256 41.6097 0.457514 41.5567" fill="#450206"/>
<path d="M32.6691 42.0408C32.8879 42.0076 33.047 41.8221 33.047 41.6033H26.3368C26.3368 41.8221 26.4959 42.0076 26.7147 42.0408C28.2597 42.2727 28.4453 42.518 28.4453 44.7118V48.609H21.3307V44.7118C21.3307 42.5113 21.4964 42.2661 23.0613 42.0408C23.2801 42.0076 23.4392 41.8221 23.4392 41.6033H16.729C16.729 41.8221 16.8881 42.0076 17.107 42.0408C18.6718 42.2727 18.8375 42.518 18.8375 44.7118V53.9311C18.8375 56.1316 18.6718 56.3768 17.107 56.6022C16.8881 56.6353 16.729 56.8209 16.729 57.0396H23.4392C23.4392 56.8209 23.2801 56.6353 23.0613 56.6022C21.4964 56.3702 21.3307 56.125 21.3307 53.9311V49.5435H28.4453V53.9311C28.4453 56.125 28.2597 56.3768 26.7147 56.6022C26.4959 56.6353 26.3368 56.8209 26.3368 57.0396H33.047C33.047 56.8209 32.8879 56.6353 32.6691 56.6022C31.1241 56.3702 30.9385 56.125 30.9385 53.9311V44.7118C30.9385 42.518 31.1241 42.2661 32.6691 42.0408Z" fill="#450206"/>
<path d="M48.3639 52.5788C47.1173 55.8529 45.3536 56.3169 41.4415 56.3169H40.9972C40.122 56.3169 40.0159 56.1247 40.0159 55.336V49.5432H42.8936C44.0208 49.5432 44.7634 50.0536 45.0353 51.5581C45.0751 51.7702 45.2541 51.9226 45.4663 51.9226V46.216C45.2541 46.216 45.0684 46.3751 45.0353 46.5806C44.7634 48.0851 44.0208 48.5954 42.8936 48.5954H40.0159V42.3586H41.2094C45.0618 42.3586 46.6996 42.5376 47.8666 46.0039C47.9262 46.1829 48.092 46.3022 48.2843 46.3022H48.3506L47.8202 41.9013C47.7936 41.6958 47.6146 41.5434 47.4091 41.55C45.9039 41.603 44.2263 41.603 42.9864 41.603H35.4275C35.4275 41.8218 35.5866 42.0073 35.8054 42.0405C37.3703 42.2725 37.536 42.5177 37.536 44.7115V53.9309C37.536 56.1313 37.3703 56.3765 35.8054 56.6019C35.5866 56.635 35.4275 56.8206 35.4275 57.0393H43.2848C44.5314 57.0393 46.189 57.0393 47.7141 57.0592C47.913 57.0592 48.0787 56.92 48.1119 56.7278L48.8811 52.2938H48.7816C48.5959 52.2938 48.4368 52.4064 48.3705 52.5788H48.3639Z" fill="#450206"/>
<path d="M68.7134 42.0269C70.192 42.2059 70.3644 42.6566 69.0052 46.3284L66.1938 53.8841L62.0828 43.5977C61.6783 42.6102 62.043 42.2191 63.1835 42.0335C63.3956 42.0004 63.5481 41.8214 63.5481 41.6094L57.3286 41.6027C57.3286 41.8148 57.4811 41.9938 57.6933 42.0269C58.7675 42.1926 58.9465 42.6234 59.5234 44.0683L64.8411 57.1252C64.8743 57.1981 64.9472 57.2511 65.0268 57.2511H65.8821C65.9683 57.2511 66.0413 57.1981 66.0678 57.1185L70.3247 45.5993C71.4187 42.7162 71.6309 42.186 72.8509 42.0203C73.0631 41.9938 73.2156 41.8082 73.2156 41.5961H68.3355C68.3355 41.8082 68.4946 41.9938 68.7068 42.0203L68.7134 42.0269Z" fill="#450206"/>
<path d="M88.8836 52.5788C87.6371 55.8529 85.8733 56.3169 81.9613 56.3169H81.517C80.6418 56.3169 80.5357 56.1247 80.5357 55.336V49.5432H83.4134C84.5406 49.5432 85.2832 50.0536 85.5551 51.5581C85.5948 51.7702 85.7739 51.9226 85.986 51.9226V46.216C85.7739 46.216 85.5882 46.3751 85.5551 46.5806C85.2832 48.0851 84.5406 48.5954 83.4134 48.5954H80.5357V42.3586H81.7292C85.5816 42.3586 87.2194 42.5376 88.3863 46.0039C88.446 46.1829 88.6118 46.3022 88.8041 46.3022H88.8704L88.3399 41.9013C88.3134 41.6958 88.1344 41.5434 87.9288 41.55C86.4237 41.603 84.7461 41.603 83.5062 41.603H75.9473C75.9473 41.8218 76.1064 42.0073 76.3252 42.0405C77.89 42.2725 78.0558 42.5177 78.0558 44.7115V53.9309C78.0558 56.1313 77.89 56.3765 76.3252 56.6019C76.1064 56.635 75.9473 56.8206 75.9473 57.0393H83.8046C85.0511 57.0393 86.7088 57.0393 88.2338 57.0592C88.4328 57.0592 88.5985 56.92 88.6317 56.7278L89.4008 52.2938H89.3014C89.1157 52.2938 88.9566 52.4064 88.8903 52.5788H88.8836Z" fill="#450206"/>
<path d="M105.619 57.099V44.7181C105.619 42.5243 105.805 42.2725 107.35 42.0471C107.569 42.014 107.728 41.8284 107.728 41.6097H102.53C102.53 41.8284 102.689 42.014 102.907 42.0471C104.472 42.2791 104.638 42.5243 104.638 44.7181V53.3012L95.5143 41.7621C95.4414 41.6693 95.322 41.6097 95.2027 41.6097H92.0133V41.6892C92.0133 41.8483 92.0995 41.9875 92.2321 42.067C92.7427 42.3653 93.167 42.8093 93.7837 43.6113L93.8699 43.7173V53.9375C93.8699 56.1313 93.6842 56.3832 92.1393 56.6085C91.9205 56.6417 91.7614 56.8272 91.7614 57.046H96.9598C96.9598 56.8272 96.8006 56.6417 96.5818 56.6085C95.0369 56.3765 94.8512 56.1313 94.8512 53.9375V44.9501L103.955 56.4428C104.333 56.92 104.917 57.205 105.527 57.205C105.586 57.205 105.633 57.1586 105.633 57.099H105.619Z" fill="#450206"/>
<path d="M123.164 52.5788C121.917 55.8529 120.154 56.3169 116.242 56.3169H115.797C114.922 56.3169 114.816 56.1247 114.816 55.336V49.5432H117.694C118.821 49.5432 119.564 50.0536 119.835 51.5581C119.875 51.7702 120.054 51.9226 120.266 51.9226V46.216C120.054 46.216 119.869 46.3751 119.835 46.5806C119.564 48.0851 118.821 48.5954 117.694 48.5954H114.816V42.3586H116.01C119.862 42.3586 121.5 42.5376 122.667 46.0039C122.726 46.1829 122.892 46.3022 123.084 46.3022H123.151L122.62 41.9013C122.594 41.6958 122.415 41.5434 122.209 41.55C120.704 41.603 119.027 41.603 117.787 41.603H110.228C110.228 41.8218 110.387 42.0073 110.606 42.0405C112.17 42.2725 112.336 42.5177 112.336 44.7115V53.9309C112.336 56.1313 112.17 56.3765 110.606 56.6019C110.387 56.635 110.228 56.8206 110.228 57.0393H118.085C119.332 57.0393 120.989 57.0393 122.514 57.0592C122.713 57.0592 122.879 56.92 122.912 56.7278L123.681 52.2938H123.582C123.396 52.2938 123.237 52.4064 123.171 52.5788H123.164Z" fill="#450206"/>
<path d="M135.418 42.2658C138.501 42.2658 139.535 42.8889 140.682 46.1431C140.742 46.3221 140.914 46.4414 141.107 46.4414H141.173L140.603 41.9079C140.576 41.7025 140.397 41.55 140.192 41.5567C138.667 41.6097 136.989 41.6097 135.762 41.6097H131.711C130.471 41.6097 128.787 41.6097 127.262 41.5567C127.056 41.55 126.877 41.7025 126.851 41.9079L126.281 46.4414H126.367C126.559 46.4414 126.725 46.3221 126.791 46.1431C127.918 42.8889 128.953 42.2658 132.036 42.2658H132.493V53.9309C132.493 55.959 132.308 56.3898 130.551 56.5953C130.325 56.6218 130.153 56.814 130.153 57.0393H137.334C137.334 56.814 137.161 56.6218 136.936 56.5953C135.179 56.3898 134.993 55.959 134.993 53.9309V42.2658H135.431H135.418Z" fill="#450206"/>
<path d="M149.939 42.0408C150.158 42.0076 150.317 41.8221 150.317 41.6033H143.606C143.606 41.8221 143.766 42.0076 143.984 42.0408C145.549 42.2727 145.715 42.518 145.715 44.7118V53.9311C145.715 56.1316 145.549 56.3768 143.984 56.6022C143.766 56.6353 143.606 56.8209 143.606 57.0396H150.317C150.317 56.8209 150.158 56.6353 149.939 56.6022C148.374 56.3702 148.208 56.125 148.208 53.9311V44.7118C148.208 42.5113 148.374 42.2661 149.939 42.0408Z" fill="#450206"/>
<path d="M168.538 56.6221C167.47 56.4829 167.238 55.9924 166.661 54.5276L161.615 41.8552C161.556 41.7028 161.41 41.6033 161.244 41.6033H160.137C159.971 41.6033 159.825 41.7028 159.765 41.8552L155.329 53.0364C154.222 55.8731 153.944 56.4431 152.823 56.6154C152.624 56.6486 152.478 56.8209 152.478 57.0264V57.0396H157.272C157.272 56.8209 157.113 56.6419 156.901 56.6154C155.402 56.4298 155.21 55.946 156.629 52.3139L156.735 52.0157H162.935L164.108 54.9982C164.5 55.9924 164.248 56.4166 163.014 56.6088C162.809 56.6419 162.656 56.8143 162.656 57.0197V57.0396H168.896C168.896 56.8275 168.743 56.6486 168.538 56.6221ZM157.159 50.9685L159.845 44.1551L162.51 50.9685H157.166H157.159Z" fill="#450206"/>
<path d="M236.548 47.9925L234.738 47.1839C233.65 46.6935 232.37 45.9909 232.37 44.3737C232.37 42.7565 233.796 41.8817 235.52 41.8817C237.383 41.8817 238.915 42.8692 239.505 46.1699C239.545 46.4019 239.744 46.5676 239.982 46.5676H239.996L239.936 42.4649C239.936 42.2396 239.81 42.0341 239.611 41.9347C238.55 41.4045 236.972 41.1128 235.566 41.1128C232.715 41.1128 230.414 42.856 230.414 45.2221C230.414 47.2635 231.84 48.6951 234.101 49.6959L235.825 50.4647C237.529 51.2336 238.849 52.0422 238.849 53.5533C238.849 55.5748 237.078 56.5557 235.248 56.5557C233.266 56.5557 231.383 55.714 230.786 51.3529C230.753 51.1143 230.547 50.9353 230.308 50.9353V55.8134C230.308 56.0388 230.434 56.2508 230.64 56.3503C231.794 56.9203 233.471 57.3246 235.248 57.3246C238.099 57.3246 240.871 55.661 240.871 52.6585C240.871 50.2328 238.994 49.0795 236.548 47.9925Z" fill="#450206"/>
<path d="M251.573 41.1789C247.528 41.1789 243.603 44.0553 243.603 49.2516C243.603 54.4478 247.522 57.3243 251.573 57.3243C255.624 57.3243 259.536 54.4478 259.536 49.2516C259.536 44.0553 255.618 41.1789 251.573 41.1789ZM251.573 56.5489C248.53 56.5489 246.375 53.6326 246.375 49.245C246.375 44.8573 248.523 41.9411 251.573 41.9411C254.623 41.9411 256.771 44.8573 256.771 49.245C256.771 53.6326 254.623 56.5489 251.573 56.5489Z" fill="#450206"/>
<path d="M276.067 56.6082C275.039 56.4226 274.449 55.9057 273.547 54.5072L270.351 49.523C272.692 49.0988 274.336 47.992 274.336 45.6457C274.336 42.4511 271.332 41.5762 267.646 41.5762C266.797 41.5762 265.007 41.5961 263.727 41.5961H261.148C261.148 41.8148 261.307 42.0004 261.526 42.0336C263.09 42.2655 263.256 42.5108 263.256 44.7046V53.9239C263.256 56.1244 263.09 56.3696 261.526 56.595C261.307 56.6281 261.148 56.8137 261.148 57.0324H267.898C267.898 56.8137 267.738 56.6281 267.52 56.595C265.915 56.363 265.749 56.1244 265.749 53.9438V49.7285H266.525C267.228 49.7285 267.878 50.093 268.236 50.6962C268.494 51.127 268.806 51.6439 269.217 52.267L270.324 53.9902C270.729 54.6331 271.166 55.3688 271.525 56.0051C271.883 56.6413 272.546 57.0324 273.275 57.0324H276.418V57.0191C276.418 56.807 276.265 56.6347 276.06 56.6016L276.067 56.6082ZM267.48 48.953H265.756V42.3716H267.48C270.079 42.3716 271.591 42.9283 271.591 45.6524C271.591 48.3764 270.079 48.953 267.48 48.953Z" fill="#450206"/>
<path d="M291.43 41.9013C291.403 41.6958 291.224 41.5434 291.019 41.55C289.494 41.603 287.816 41.603 286.589 41.603H282.538C281.298 41.603 279.614 41.603 278.089 41.55C277.883 41.5434 277.704 41.6958 277.678 41.9013L277.108 46.4347H277.128C277.353 46.4347 277.559 46.2889 277.638 46.0768C278.759 42.8756 279.8 42.2658 282.863 42.2658H283.321V53.9309C283.321 55.9656 283.135 56.3964 281.358 56.5952C281.146 56.6218 280.98 56.8007 280.98 57.0194V57.0393H288.161C288.161 56.814 287.989 56.6218 287.763 56.5952C286.006 56.3898 285.82 55.959 285.82 53.9309V42.2658H286.258C289.321 42.2658 290.362 42.8822 291.503 46.0835C291.582 46.2956 291.781 46.4414 292.013 46.4414L291.443 41.9079L291.43 41.9013Z" fill="#450206"/>
<path d="M182.203 42.0402C183.768 42.2721 183.934 42.5174 183.934 44.7112V53.2943L174.81 41.7552C174.737 41.6624 174.618 41.6027 174.499 41.6027H171.309V41.6823C171.309 41.8413 171.395 41.9805 171.528 42.0601C172.039 42.3583 172.463 42.8024 173.08 43.6043L173.166 43.7104V53.9305C173.166 56.1244 172.98 56.3762 171.435 56.6016C171.216 56.6347 171.057 56.8203 171.057 57.039H176.256C176.256 56.8203 176.097 56.6347 175.878 56.6016C174.333 56.3696 174.147 56.1244 174.147 53.9305V44.9432L183.324 56.5287C183.662 56.9528 184.179 57.2047 184.723 57.2047C184.836 57.2047 184.929 57.1185 184.929 57.0059V44.7046C184.929 42.5107 185.114 42.2589 186.659 42.0335C186.878 42.0004 187.037 41.8148 187.037 41.5961H181.839C181.839 41.8148 181.998 42.0004 182.217 42.0335L182.203 42.0402Z" fill="#450206"/>
<path d="M226.576 52.5788C225.329 55.8529 223.565 56.3169 219.653 56.3169H219.209C218.334 56.3169 218.228 56.1247 218.228 55.336V49.5432H221.105C222.232 49.5432 222.975 50.0536 223.247 51.5581C223.287 51.7702 223.466 51.9226 223.678 51.9226V46.216C223.466 46.216 223.28 46.3751 223.247 46.5806C222.975 48.0851 222.232 48.5954 221.105 48.5954H218.228V42.3586H219.421C223.273 42.3586 224.911 42.5376 226.078 46.0039C226.138 46.1829 226.304 46.3022 226.496 46.3022H226.562L226.032 41.9013C226.005 41.6958 225.826 41.5434 225.621 41.55C224.116 41.603 222.438 41.603 221.198 41.603H213.639C213.639 41.8218 213.798 42.0073 214.017 42.0405C215.582 42.2725 215.748 42.5177 215.748 44.7115V53.9309C215.748 56.1313 215.582 56.3765 214.017 56.6019C213.798 56.635 213.639 56.8206 213.639 57.0393H221.496C222.743 57.0393 224.401 57.0393 225.926 57.0592C226.125 57.0592 226.29 56.92 226.324 56.7278L227.093 52.2938H226.993C226.808 52.2938 226.648 52.4064 226.582 52.5788H226.576Z" fill="#450206"/>
<path d="M210.914 56.6082C209.886 56.4226 209.296 55.9057 208.394 54.5072L205.198 49.523C207.539 49.0988 209.183 47.992 209.183 45.6457C209.183 42.4511 206.18 41.5762 202.493 41.5762C201.644 41.5762 199.854 41.5961 198.574 41.5961H195.995C195.995 41.8148 196.154 42.0004 196.373 42.0336C197.938 42.2655 198.103 42.5108 198.103 44.7046V53.9239C198.103 56.1244 197.938 56.3696 196.373 56.595C196.154 56.6281 195.995 56.8137 195.995 57.0324H202.745C202.745 56.8137 202.586 56.6281 202.367 56.595C200.762 56.363 200.597 56.1244 200.597 53.9438V49.7285H201.372C202.075 49.7285 202.725 50.093 203.083 50.6962C203.342 51.127 203.653 51.6439 204.064 52.267L205.172 53.9902C205.576 54.6331 206.014 55.3688 206.372 56.0051C206.73 56.6413 207.393 57.0324 208.122 57.0324H211.265V57.0191C211.265 56.807 211.113 56.6347 210.907 56.6016L210.914 56.6082ZM202.327 48.953H200.603V42.3716H202.327C204.926 42.3716 206.438 42.9283 206.438 45.6524C206.438 48.3764 204.926 48.953 202.327 48.953Z" fill="#450206"/>
<path d="M106.19 66.1394H104.751V73.8608H109.293V72.6347H106.19V66.1394Z" fill="#450206"/>
<path d="M116.686 66.0264L113.026 73.8605H114.537L115.214 72.3494H118.257L118.934 73.8605H120.445L116.785 66.0264H116.679H116.686ZM115.698 71.2558C116.009 70.5466 116.314 69.8109 116.58 69.1614C116.639 69.0222 116.692 68.883 116.745 68.7504C117.017 69.4861 117.342 70.2682 117.78 71.2558H115.691H115.698Z" fill="#450206"/>
<path d="M126.911 69.4464C125.797 69.0421 125.379 68.6974 125.379 68.1738C125.379 67.6502 125.929 67.2857 126.778 67.2857C127.487 67.2857 128.21 67.5111 128.608 67.7364L128.688 67.7762V66.4042L128.654 66.3909C128.436 66.2982 127.66 66.0065 126.685 66.0065C125.067 66.0065 123.98 66.888 123.98 68.1937C123.98 69.4994 124.848 70.1026 126.155 70.5665C127.342 70.9841 127.72 71.3022 127.72 71.8589C127.72 72.3295 127.269 72.535 126.891 72.6211C126.698 72.6742 126.453 72.7007 126.141 72.7007C125.273 72.6742 124.51 72.3494 124.132 72.1572L124.059 72.1174V73.5358L124.093 73.549C124.742 73.8208 125.584 73.9865 126.347 73.9865C128.084 73.9865 129.119 73.1712 129.119 71.7993C129.119 70.5135 128.243 69.9236 126.924 69.4331L126.911 69.4464Z" fill="#450206"/>
<path d="M144.217 68.5455C143.819 69.4337 143.408 70.3549 143.096 71.1171C142.831 70.4411 142.546 69.7916 142.214 69.0559C142.128 68.8637 142.042 68.6715 141.955 68.466L140.914 66.1529H139.363L143.063 74.0069C143.103 74.0069 143.109 74.0069 143.156 74.0069L146.842 66.1529H145.291L144.223 68.5521L144.217 68.5455Z" fill="#450206"/>
<path d="M152.452 70.5469H155.382V69.3539H152.452V67.3655H155.913V66.1394H151.013V73.8608H156.072V72.6347H152.452V70.5469Z" fill="#450206"/>
<path d="M165.534 72.4955C165.222 72.6081 164.732 72.6943 164.327 72.6943C162.782 72.6943 161.662 71.561 161.662 70.0034C161.662 68.4459 162.782 67.339 164.38 67.339C165.156 67.339 165.892 67.518 166.641 67.8825L166.714 67.9156V66.5503L166.688 66.537C165.965 66.1858 165.156 66.0002 164.334 66.0002C161.986 66.0002 160.216 67.7168 160.216 69.9968C160.216 72.2768 161.94 73.9934 164.32 73.9934C165.229 73.9934 166.217 73.768 166.893 73.4035L166.92 73.3902V70.3149H165.527V72.4889L165.534 72.4955Z" fill="#450206"/>
<path d="M174.2 66.0264L170.54 73.8605H172.052L172.728 72.3494H175.772L176.448 73.8605H177.96L174.3 66.0264H174.194H174.2ZM173.212 71.2558C173.524 70.5466 173.829 69.8109 174.094 69.1614C174.154 69.0222 174.207 68.883 174.26 68.7504C174.532 69.4861 174.857 70.2682 175.294 71.2558H173.206H173.212Z" fill="#450206"/>
<path d="M184.531 69.4464C183.417 69.0421 182.999 68.6974 182.999 68.1738C182.999 67.6502 183.549 67.2857 184.398 67.2857C185.107 67.2857 185.83 67.5111 186.228 67.7364L186.308 67.7762V66.4042L186.274 66.3909C186.056 66.2982 185.28 66.0065 184.305 66.0065C182.687 66.0065 181.6 66.888 181.6 68.1937C181.6 69.4994 182.468 70.1026 183.775 70.5665C184.962 70.9841 185.34 71.3022 185.34 71.8589C185.34 72.3295 184.889 72.535 184.511 72.6211C184.318 72.6742 184.073 72.7007 183.761 72.7007C182.893 72.6742 182.13 72.3494 181.752 72.1572L181.679 72.1174V73.5358L181.713 73.549C182.362 73.8208 183.204 73.9865 183.967 73.9865C185.704 73.9865 186.739 73.1712 186.739 71.7993C186.739 70.5135 185.863 69.9236 184.544 69.4331L184.531 69.4464Z" fill="#450206"/>
<path d="M189.517 41.1128C188.821 41.1128 188.27 41.6232 188.27 42.3589C188.27 43.0946 188.827 43.5983 189.517 43.5983C190.207 43.5983 190.757 43.0946 190.757 42.3589C190.757 41.6232 190.2 41.1128 189.517 41.1128ZM189.517 43.4127C188.933 43.4127 188.483 42.9819 188.483 42.3589C188.483 41.7358 188.94 41.305 189.517 41.305C190.094 41.305 190.545 41.7292 190.545 42.3589C190.545 42.9885 190.1 43.4127 189.517 43.4127Z" fill="#450206"/>
<path d="M190.054 42.0739C190.054 41.7226 189.815 41.6629 189.417 41.6629H189.086V43.0216H189.304V42.4914H189.51C189.51 42.4914 189.563 42.4914 189.583 42.4914L189.861 43.0283H190.107L189.802 42.445C189.974 42.3721 190.054 42.2329 190.054 42.0805V42.0739ZM189.503 42.2926H189.304V41.8684H189.49C189.682 41.8684 189.828 41.9082 189.828 42.0805C189.828 42.2263 189.729 42.2992 189.503 42.2992V42.2926Z" fill="#450206"/>
<path d="M148.732 27.2668C148.427 27.7506 148.042 28.1549 147.618 28.5327C147.173 28.9237 146.676 29.2286 146.179 29.5401C145.721 29.8251 145.277 30.1234 144.879 30.4879C144.316 31.0115 143.944 31.9129 143.944 32.5094H145.164C145.164 31.714 145.682 31.0977 146.451 30.7729C146.451 30.7729 145.801 31.2766 145.801 32.5094H146.961C146.961 31.714 147.313 31.0977 148.082 30.7729C148.082 30.7729 147.604 31.2766 147.604 32.5094H148.824C148.824 32.4564 148.824 32.4033 148.824 32.3569C148.897 30.1565 150.489 28.3405 152.584 27.9229C152.803 27.8765 152.935 27.6578 152.882 27.4391C152.796 27.0944 152.75 26.7299 152.75 26.3587C152.75 25.5634 152.929 24.8012 153.287 24.1517C153.313 24.0986 153.3 24.039 153.26 24.0059C152.054 23.0249 151.158 21.7723 150.648 20.3672C149.594 20.4798 148.546 20.851 147.545 21.474C147.326 21.6132 147.107 21.7656 146.902 21.9247C147.134 23.1707 147.717 24.2312 148.599 25.1326C148.964 25.5037 149.11 25.9611 149.03 26.478C148.984 26.763 148.878 27.0215 148.725 27.2601L148.732 27.2668Z" fill="#450206"/>
<path d="M174.983 4.01679C175.009 3.9704 174.963 3.91075 174.91 3.93063C174.77 3.98365 174.545 4.05656 174.273 4.05656C173.172 4.05656 172.861 3.42691 172.861 3.42691C172.861 3.42691 173.305 3.48656 173.643 3.48656C176.441 3.48656 176.68 0.68298 176.7 0.0997286C176.7 0.0533336 176.654 0.0268221 176.614 0.0467057C176.468 0.12624 176.13 0.265425 175.579 0.265425C175.029 0.265425 174.605 -0.00631714 173.968 -0.00631714C172.204 -0.00631714 171.024 1.04751 170.626 1.70367C170.514 0.948094 170.998 0.557051 171.276 0.391354C171.329 0.364843 171.309 0.285309 171.25 0.278681C170.354 0.238914 169.658 0.755886 169.148 1.2596C168.664 1.73681 168.332 2.30018 167.987 2.89006C167.105 4.40784 164.4 9.05396 163.459 10.6712C162.557 12.2154 161.642 13.7863 157.372 13.7863H141.471C140.855 13.7863 140.245 13.9122 139.674 14.1508C138.149 14.7937 136.896 15.821 135.975 17.3123C135.06 18.7903 134.562 20.3876 134.668 22.144C134.715 22.8465 134.88 23.5226 135.192 24.1588C135.63 25.047 136.293 25.7363 137.108 26.2798C137.228 26.3593 137.347 26.4521 137.453 26.5515C138.196 27.2474 138.057 28.1223 137.559 28.6658C137.367 28.8779 137.128 29.0635 136.896 29.2424C136.28 29.7064 135.65 30.1571 135.066 30.6674C134.542 31.1247 134.171 31.8936 134.171 32.4967H135.391C135.391 31.7013 135.908 31.085 136.677 30.7602C136.638 30.7933 136.034 31.3037 136.034 32.4967H137.195C137.195 31.7013 137.546 31.085 138.315 30.7602C138.315 30.7602 137.838 31.2639 137.838 32.4967H139.058C139.058 30.4421 140.377 28.7056 142.221 28.0759C142.559 27.9632 142.638 27.5192 142.36 27.2938C142.121 27.1016 141.869 26.8829 141.65 26.6708C140.987 26.008 140.643 24.994 140.643 24.2119C140.643 23.4298 140.848 22.7537 141.524 22.3627C141.239 22.7537 141.001 23.8341 141.332 24.3113C143.454 24.3113 144.376 23.0652 145.536 22.0379C146.046 21.5872 146.557 21.1498 147.134 20.7919C148.374 20.0231 149.733 19.5591 151.212 19.5326C152.054 22.5682 154.812 24.815 157.988 25.1398C158.081 25.1464 158.174 25.1597 158.267 25.1663C158.393 25.4645 158.466 25.8622 158.472 26.2599C158.472 27.5391 157.723 28.858 156.158 29.6136C154.998 30.1769 153.712 31.4031 153.712 32.4967H154.932C154.932 31.7013 155.449 31.085 156.218 30.7602C156.178 30.7933 155.575 31.3037 155.575 32.4967H156.735C156.735 31.7013 157.087 31.085 157.856 30.7602C157.856 30.7602 157.352 31.2639 157.352 32.4967H158.572C158.572 30.4222 159.924 28.6658 161.794 28.0494C161.953 27.9964 162.059 27.8506 162.059 27.6782V24.3511C162.059 24.2185 161.993 24.0926 161.874 24.0197C160.203 22.9791 159.096 21.1299 159.096 19.0156C159.096 15.2643 162.033 14.449 163.684 11.6189C164.752 9.78303 166.369 7.02584 167.192 5.60085C168.1 4.02342 168.809 4.03667 169.267 4.03667C170.62 4.03667 171.296 4.81213 172.841 4.81213C174.213 4.81213 174.764 4.38132 174.983 3.99691V4.01679Z" fill="#450206"/>
<path d="M141.504 12.9306C141.471 12.9836 141.531 13.0432 141.584 13.0101C142.399 12.5528 144.249 11.2603 144.249 9.1328C144.249 7.17758 144.249 5.30853 145.416 3.28041C146.484 1.43786 148.765 0.562985 149.693 0.277987C149.759 0.258104 149.74 0.165314 149.673 0.165314H147.717C146.159 0.165314 141.909 0.165314 141.909 4.84458C141.909 6.40875 142.293 7.93316 142.293 9.88838C142.293 11.4062 141.743 12.5196 141.504 12.9372V12.9306Z" fill="#450206"/>
<path d="M124.517 4.89134C124.954 4.59972 125.485 4.25507 125.511 4.23518C125.73 4.07612 125.757 3.77786 125.087 3.77786C124.915 3.77786 124.643 3.83089 124.424 3.91042V4.84495C124.424 4.89134 124.477 4.91785 124.517 4.89134Z" fill="#450206"/>
<path d="M147.817 2.10789H164.141C166.349 2.10789 167.284 0.75581 167.662 0.126163C167.689 0.0797685 167.649 0.0267457 167.596 0.0400014C167.092 0.165931 166.376 0.165931 166.376 0.165931H153.532C151.371 0.165931 149.077 1.17336 147.79 2.00185C147.744 2.03499 147.764 2.10789 147.823 2.10789H147.817Z" fill="#450206"/>
<path d="M166.223 2.57823C166.25 2.53184 166.204 2.47218 166.151 2.4987C165.607 2.73067 164.937 2.88974 164.135 2.88974H146.736C146.736 2.88974 146.67 2.903 146.65 2.92951C146.438 3.15485 146.252 3.40008 146.093 3.67183C145.881 4.04299 145.708 4.40089 145.569 4.75879C145.556 4.79856 145.582 4.83833 145.622 4.83833H162.57C164.771 4.83833 165.733 3.40671 166.217 2.58486L166.223 2.57823Z" fill="#450206"/>
<path d="M164.639 5.30907C164.665 5.26267 164.619 5.20302 164.566 5.22953C164.022 5.46151 163.352 5.62057 162.55 5.62057H145.35C145.35 5.62057 145.297 5.64046 145.29 5.66697C145.144 6.27673 145.078 6.88649 145.052 7.50951C145.052 7.54265 145.078 7.56916 145.111 7.56916H160.992C163.193 7.56916 164.154 6.13755 164.639 5.31569V5.30907Z" fill="#450206"/>
<path d="M163.054 8.0396C163.08 7.9932 163.034 7.93355 162.981 7.96006C162.437 8.19204 161.768 8.3511 160.965 8.3511H145.092C145.092 8.3511 145.032 8.37762 145.032 8.41075C145.032 8.64273 145.032 8.8747 145.032 9.11331V9.13982C145.032 9.53086 144.979 9.88877 144.893 10.2268C144.886 10.2666 144.913 10.2997 144.946 10.2997H159.4C161.602 10.2997 162.563 8.86808 163.047 8.04622L163.054 8.0396Z" fill="#450206"/>
<path d="M161.396 10.6845C160.853 10.9165 160.183 11.0755 159.381 11.0755H144.647C144.601 11.0755 144.561 11.102 144.541 11.1418C144.157 11.8907 143.6 12.4873 143.076 12.9247C143.036 12.9578 143.063 13.0241 143.116 13.0241H157.816C160.017 13.0241 160.979 11.5925 161.463 10.7706C161.489 10.7242 161.443 10.6646 161.39 10.6911L161.396 10.6845Z" fill="#450206"/>
<path d="M116.083 25.7961C116.083 26.6047 115.89 27.0288 115.89 27.7844C115.89 29.2624 117.429 31.4695 119.478 32.5035H122.972C125.027 31.4695 126.559 29.2558 126.559 27.7844C126.559 27.0288 126.367 26.6047 126.367 25.7961C126.367 24.265 127.388 23.3968 127.646 23.1979C127.68 23.1781 127.68 23.1317 127.646 23.1052C126.665 22.3164 125.83 20.7125 125.671 20.3546C125.518 20.0365 125.425 19.6454 124.961 19.6454C124.537 19.6454 124.344 20.0431 124.464 20.4076C124.53 20.6065 124.61 20.8252 124.61 20.8252H117.846C117.846 20.8252 117.926 20.6065 117.992 20.4076C118.112 20.0431 117.913 19.6454 117.495 19.6454C117.024 19.6454 116.938 20.0431 116.785 20.3546C116.62 20.7059 115.791 22.3164 114.81 23.1052C114.783 23.1317 114.776 23.1714 114.81 23.1979C115.075 23.3968 116.089 24.265 116.089 25.7961H116.083ZM117.667 23.1516H120.452V23.1648C120.452 23.3305 120.34 23.4763 120.18 23.5095C119.756 23.6022 119.63 23.7812 119.796 24.1921L121.639 28.7985L122.899 25.4116C123.469 23.874 123.436 23.5956 122.899 23.5028C122.733 23.4763 122.607 23.3239 122.607 23.1582H124.795C124.795 23.3239 124.683 23.4697 124.517 23.5028C124.066 23.5956 123.947 23.8872 123.496 25.0869L121.566 30.303H121.062L118.655 24.3976C118.417 23.8011 118.33 23.589 117.946 23.5028C117.787 23.4697 117.674 23.3239 117.674 23.1582L117.667 23.1516Z" fill="#450206"/>
<path d="M121.301 18.3194C121.301 18.3194 120.651 18.8231 120.651 20.0559H121.811C121.811 19.2606 122.163 18.6442 122.932 18.3194C122.932 18.3194 122.455 18.8231 122.455 20.0559H123.655C123.681 19.8239 123.761 19.5986 123.9 19.4064C124.145 19.0684 124.53 18.8761 124.961 18.8761C125.869 18.8761 126.168 19.6118 126.32 19.9101C127.209 21.6797 128.071 23.3698 130.663 23.2572C130.716 23.2572 130.736 23.1975 130.703 23.1577C130.06 22.4751 129.529 21.693 129.138 20.8314C128.893 20.3011 128.714 19.751 128.595 19.1943L127.892 18.4917C127.408 18.0079 127.003 17.471 126.678 16.8878H122.707C120.751 16.8878 118.788 18.2001 118.788 20.0493H120.008C120.008 19.2539 120.525 18.6375 121.294 18.3128L121.301 18.3194Z" fill="#450206"/>
<path d="M132.785 2.90963C132.686 3.67846 132.407 4.36776 131.956 4.99741C131.207 6.04461 130.338 6.97913 129.404 7.86064C129.079 8.16552 128.747 8.47703 128.442 8.80179C125.916 11.327 125.916 15.423 128.442 17.9482C128.442 16.0262 129.278 14.3029 130.61 13.1165C130.259 13.607 129.96 14.1438 129.728 14.7205C128.117 18.7104 130.226 23.1445 134.449 24.702C134.502 24.7219 134.549 24.6623 134.516 24.6159C133.859 23.6548 132.759 21.8653 132.759 19.6516C132.759 17.4379 133.713 16.5365 133.713 16.5365C133.713 16.5365 133.335 17.6168 133.335 18.8761C133.335 19.6052 133.468 20.553 133.773 21.3218C133.8 21.3218 133.82 21.3152 133.826 21.3152C133.826 21.3152 133.826 21.3152 133.833 21.3152C133.833 21.3152 133.833 21.3152 133.839 21.3152C133.846 21.3152 133.866 21.3152 133.892 21.3086C133.965 19.8107 134.443 18.3393 135.318 16.9275C136.492 15.032 138.216 13.7329 140.444 13.0834C140.47 13.0768 140.49 13.0635 140.503 13.037L140.762 12.6857C140.762 12.6857 141.524 11.5656 141.524 9.90202C141.524 7.32378 140.802 4.76543 139.88 3.43986C139.237 2.48545 138.236 1.81604 137.095 1.52441C137.32 1.47801 137.559 1.45813 137.798 1.45813C138.66 1.45813 139.462 1.74313 140.105 2.22033C140.132 2.24022 140.172 2.20708 140.152 2.17394C139.27 0.861624 137.778 0.178955 136.087 0.178955C134.774 0.178955 133.587 0.50372 132.706 1.35209C132.692 1.36534 132.686 1.39185 132.692 1.41174C132.732 1.55755 132.891 2.16731 132.792 2.92952L132.785 2.90963ZM136.2 2.16068C136.744 2.32638 137.042 2.93614 136.843 3.47963C136.73 3.80439 136.505 4.03637 136.173 4.20869C136.193 4.12253 136.207 4.06288 136.226 4.00323C136.306 3.72486 136.299 3.44649 136.2 3.17475C136.047 2.73731 135.676 2.46557 135.212 2.45894C135.139 2.45894 135.059 2.45894 134.987 2.45894C135.351 2.16731 135.749 2.02813 136.2 2.16731V2.16068Z" fill="#450206"/>
<path d="M124.517 8.29143C124.789 8.12574 125.598 7.65516 126.048 7.65516C126.433 7.65516 126.705 7.95341 126.705 8.34446V9.58387C126.705 9.64352 126.778 9.6634 126.811 9.617C128.19 7.33702 132.036 5.26913 132.036 2.35288C132.036 1.98834 131.97 1.73649 131.93 1.61056C131.917 1.55753 131.864 1.52439 131.81 1.53102C129.006 1.73649 129.888 2.22032 126.174 3.41333C126.148 3.41996 126.141 3.45973 126.174 3.47298C126.294 3.53263 126.519 3.68507 126.519 3.91705C126.519 4.04961 126.473 4.19542 126.281 4.34123C126.062 4.50693 124.895 5.34204 124.689 5.48785C124.669 5.50111 124.669 5.52099 124.689 5.54087C124.842 5.68006 125.399 6.17715 125.538 6.30308C125.657 6.41575 125.816 6.55494 125.956 6.68086C125.843 6.78028 125.69 6.8797 125.511 6.8797C125.286 6.8797 125.08 6.74714 124.968 6.64773C124.789 6.48866 124.689 6.4025 124.543 6.27657C124.504 6.24343 124.444 6.27657 124.444 6.32296V8.25167C124.444 8.29806 124.497 8.32457 124.53 8.30469L124.517 8.29143ZM129.596 2.88973C130.113 2.88973 130.445 3.23438 130.551 3.67182H128.595C128.654 3.3338 129.099 2.88973 129.589 2.88973H129.596Z" fill="#450206"/>
</g>
<defs>
<clipPath id="clip0_752_19743">
<rect width="292" height="74" fill="#450206"/>
</clipPath>
</defs>
</svg>

