<svg width="58" height="30" viewBox="0 0 58 30" fill="none" xmlns="http://www.w3.org/2000/svg">
<path d="M31.3365 25.1635C31.055 25.6099 30.7 25.9829 30.3083 26.3315C29.8983 26.6923 29.4393 26.9736 28.9803 27.261C28.5581 27.5239 28.148 27.7991 27.7809 28.1354C27.2607 28.6185 26.918 29.4501 26.918 30.0005H28.044C28.044 29.2667 28.5214 28.698 29.2313 28.3983C29.2313 28.3983 28.6315 28.8631 28.6315 30.0005H29.7025C29.7025 29.2667 30.0268 28.698 30.7367 28.3983C30.7367 28.3983 30.2961 28.8631 30.2961 30.0005H31.4221C31.4221 29.9516 31.4221 29.9026 31.4221 29.8598C31.4895 27.8297 32.9582 26.1542 34.8921 25.7689C35.094 25.7261 35.2164 25.5243 35.1675 25.3225C35.0879 25.0045 35.0451 24.6682 35.0451 24.3258C35.0451 23.592 35.2103 22.8888 35.5408 22.2895C35.5652 22.2406 35.553 22.1855 35.5163 22.155C34.4025 21.25 33.5763 20.0942 33.1051 18.7979C32.132 18.9018 31.1651 19.2442 30.241 19.8191C30.0391 19.9475 29.8371 20.0881 29.6474 20.2349C29.8616 21.3845 30.4001 22.3629 31.2141 23.1945C31.5507 23.537 31.6853 23.9589 31.6119 24.4359C31.569 24.6988 31.4711 24.9373 31.3303 25.1574L31.3365 25.1635Z" fill="#450206"/>
<path d="M31.3365 25.1635C31.055 25.6099 30.7 25.9829 30.3083 26.3315C29.8983 26.6923 29.4393 26.9736 28.9803 27.261C28.5581 27.5239 28.148 27.7991 27.7809 28.1354C27.2607 28.6185 26.918 29.4501 26.918 30.0005H28.044C28.044 29.2667 28.5214 28.698 29.2313 28.3983C29.2313 28.3983 28.6315 28.8631 28.6315 30.0005H29.7025C29.7025 29.2667 30.0268 28.698 30.7367 28.3983C30.7367 28.3983 30.2961 28.8631 30.2961 30.0005H31.4221C31.4221 29.9516 31.4221 29.9026 31.4221 29.8598C31.4895 27.8297 32.9582 26.1542 34.8921 25.7689C35.094 25.7261 35.2164 25.5243 35.1675 25.3225C35.0879 25.0045 35.0451 24.6682 35.0451 24.3258C35.0451 23.592 35.2103 22.8888 35.5408 22.2895C35.5652 22.2406 35.553 22.1855 35.5163 22.155C34.4025 21.25 33.5763 20.0942 33.1051 18.7979C32.132 18.9018 31.1651 19.2442 30.241 19.8191C30.0391 19.9475 29.8371 20.0881 29.6474 20.2349C29.8616 21.3845 30.4001 22.3629 31.2141 23.1945C31.5507 23.537 31.6853 23.9589 31.6119 24.4359C31.569 24.6988 31.4711 24.9373 31.3303 25.1574L31.3365 25.1635Z" fill="black" fill-opacity="0.2"/>
<path d="M55.558 3.71179C55.5824 3.66898 55.5396 3.61395 55.4906 3.63229C55.3621 3.68121 55.1541 3.74848 54.9031 3.74848C53.8873 3.74848 53.5996 3.16755 53.5996 3.16755C53.5996 3.16755 54.0097 3.22259 54.3218 3.22259C56.9043 3.22259 57.1246 0.635957 57.143 0.0978395C57.143 0.0550347 57.1002 0.0305748 57.0634 0.0489197C56.9288 0.122299 56.6167 0.250714 56.1087 0.250714C55.6008 0.250714 55.2091 0 54.6216 0C52.9938 0 51.9044 0.97228 51.5373 1.57766C51.4332 0.880555 51.88 0.519772 52.137 0.366898C52.186 0.342438 52.1676 0.269059 52.1125 0.262944C51.2864 0.226254 50.6438 0.703221 50.1725 1.16796C49.7258 1.60824 49.4198 2.12801 49.1016 2.67224C48.2876 4.07257 45.7908 8.35916 44.9218 9.85121C44.0895 11.276 43.2449 12.7252 39.3038 12.7252H24.6285C24.0594 12.7252 23.4964 12.8414 22.9701 13.0616C21.5625 13.6547 20.4059 14.6025 19.5552 15.9784C18.7107 17.342 18.2517 18.8158 18.3496 20.4362C18.3924 21.0844 18.5454 21.7081 18.8331 22.2952C19.237 23.1146 19.849 23.7505 20.6017 24.252C20.7119 24.3253 20.822 24.4109 20.9199 24.5027C21.6053 25.1447 21.4768 25.9519 21.0178 26.4533C20.8404 26.649 20.6201 26.8202 20.4059 26.9853C19.8367 27.4134 19.2553 27.8292 18.7168 28.3001C18.2333 28.722 17.8906 29.4313 17.8906 29.9878H19.0167C19.0167 29.254 19.494 28.6853 20.2039 28.3857C20.1672 28.4163 19.6103 28.8871 19.6103 29.9878H20.6813C20.6813 29.254 21.0056 28.6853 21.7155 28.3857C21.7155 28.3857 21.2749 28.8504 21.2749 29.9878H22.4009C22.4009 28.0922 23.6188 26.49 25.3201 25.9091C25.6322 25.8052 25.7056 25.3955 25.4486 25.1875C25.2283 25.0102 24.9957 24.8084 24.7938 24.6127C24.1818 24.0012 23.8635 23.0657 23.8635 22.3441C23.8635 21.6225 24.0533 20.9988 24.6775 20.638C24.4143 20.9988 24.194 21.9955 24.5 22.4358C26.4583 22.4358 27.309 21.2862 28.38 20.3384C28.8512 19.9226 29.3224 19.519 29.8548 19.1888C30.9992 18.4794 32.2538 18.0514 33.6185 18.0269C34.3957 20.8276 36.9415 22.9006 39.8729 23.2002C39.9586 23.2063 40.0443 23.2185 40.13 23.2246C40.2462 23.4998 40.3136 23.8667 40.3197 24.2336C40.3197 25.4138 39.6281 26.6307 38.1839 27.3278C37.1129 27.8476 35.9257 28.9788 35.9257 29.9878H37.0517C37.0517 29.254 37.529 28.6853 38.2389 28.3857C38.2022 28.4163 37.6453 28.8871 37.6453 29.9878H38.7163C38.7163 29.254 39.0406 28.6853 39.7505 28.3857C39.7505 28.3857 39.2854 28.8504 39.2854 29.9878H40.4115C40.4115 28.0738 41.6599 26.4533 43.3857 25.8847C43.5326 25.8357 43.6305 25.7012 43.6305 25.5422V22.4725C43.6305 22.3502 43.5693 22.234 43.4591 22.1668C41.9169 21.2067 40.8949 19.5006 40.8949 17.55C40.8949 14.0889 43.606 13.3367 45.1298 10.7257C46.1151 9.03181 47.6084 6.48798 48.3672 5.17326C49.2056 3.7179 49.8604 3.73013 50.2827 3.73013C51.5311 3.73013 52.1554 4.44558 53.5813 4.44558C54.8481 4.44558 55.356 4.04811 55.558 3.69344V3.71179Z" fill="#450206"/>
<path d="M55.558 3.71179C55.5824 3.66898 55.5396 3.61395 55.4906 3.63229C55.3621 3.68121 55.1541 3.74848 54.9031 3.74848C53.8873 3.74848 53.5996 3.16755 53.5996 3.16755C53.5996 3.16755 54.0097 3.22259 54.3218 3.22259C56.9043 3.22259 57.1246 0.635957 57.143 0.0978395C57.143 0.0550347 57.1002 0.0305748 57.0634 0.0489197C56.9288 0.122299 56.6167 0.250714 56.1087 0.250714C55.6008 0.250714 55.2091 0 54.6216 0C52.9938 0 51.9044 0.97228 51.5373 1.57766C51.4332 0.880555 51.88 0.519772 52.137 0.366898C52.186 0.342438 52.1676 0.269059 52.1125 0.262944C51.2864 0.226254 50.6438 0.703221 50.1725 1.16796C49.7258 1.60824 49.4198 2.12801 49.1016 2.67224C48.2876 4.07257 45.7908 8.35916 44.9218 9.85121C44.0895 11.276 43.2449 12.7252 39.3038 12.7252H24.6285C24.0594 12.7252 23.4964 12.8414 22.9701 13.0616C21.5625 13.6547 20.4059 14.6025 19.5552 15.9784C18.7107 17.342 18.2517 18.8158 18.3496 20.4362C18.3924 21.0844 18.5454 21.7081 18.8331 22.2952C19.237 23.1146 19.849 23.7505 20.6017 24.252C20.7119 24.3253 20.822 24.4109 20.9199 24.5027C21.6053 25.1447 21.4768 25.9519 21.0178 26.4533C20.8404 26.649 20.6201 26.8202 20.4059 26.9853C19.8367 27.4134 19.2553 27.8292 18.7168 28.3001C18.2333 28.722 17.8906 29.4313 17.8906 29.9878H19.0167C19.0167 29.254 19.494 28.6853 20.2039 28.3857C20.1672 28.4163 19.6103 28.8871 19.6103 29.9878H20.6813C20.6813 29.254 21.0056 28.6853 21.7155 28.3857C21.7155 28.3857 21.2749 28.8504 21.2749 29.9878H22.4009C22.4009 28.0922 23.6188 26.49 25.3201 25.9091C25.6322 25.8052 25.7056 25.3955 25.4486 25.1875C25.2283 25.0102 24.9957 24.8084 24.7938 24.6127C24.1818 24.0012 23.8635 23.0657 23.8635 22.3441C23.8635 21.6225 24.0533 20.9988 24.6775 20.638C24.4143 20.9988 24.194 21.9955 24.5 22.4358C26.4583 22.4358 27.309 21.2862 28.38 20.3384C28.8512 19.9226 29.3224 19.519 29.8548 19.1888C30.9992 18.4794 32.2538 18.0514 33.6185 18.0269C34.3957 20.8276 36.9415 22.9006 39.8729 23.2002C39.9586 23.2063 40.0443 23.2185 40.13 23.2246C40.2462 23.4998 40.3136 23.8667 40.3197 24.2336C40.3197 25.4138 39.6281 26.6307 38.1839 27.3278C37.1129 27.8476 35.9257 28.9788 35.9257 29.9878H37.0517C37.0517 29.254 37.529 28.6853 38.2389 28.3857C38.2022 28.4163 37.6453 28.8871 37.6453 29.9878H38.7163C38.7163 29.254 39.0406 28.6853 39.7505 28.3857C39.7505 28.3857 39.2854 28.8504 39.2854 29.9878H40.4115C40.4115 28.0738 41.6599 26.4533 43.3857 25.8847C43.5326 25.8357 43.6305 25.7012 43.6305 25.5422V22.4725C43.6305 22.3502 43.5693 22.234 43.4591 22.1668C41.9169 21.2067 40.8949 19.5006 40.8949 17.55C40.8949 14.0889 43.606 13.3367 45.1298 10.7257C46.1151 9.03181 47.6084 6.48798 48.3672 5.17326C49.2056 3.7179 49.8604 3.73013 50.2827 3.73013C51.5311 3.73013 52.1554 4.44558 53.5813 4.44558C54.8481 4.44558 55.356 4.04811 55.558 3.69344V3.71179Z" fill="black" fill-opacity="0.2"/>
<path d="M24.6651 11.9366C24.6345 11.9855 24.6895 12.0406 24.7385 12.01C25.4912 11.5881 27.1987 10.3956 27.1987 8.43273C27.1987 6.62881 27.1987 4.90439 28.2757 3.03321C29.261 1.33325 31.3662 0.526078 32.223 0.263134C32.2842 0.244789 32.2658 0.15918 32.2046 0.15918H30.3993C28.9612 0.15918 25.0384 0.15918 25.0384 4.47635C25.0384 5.91948 25.3933 7.32592 25.3933 9.12984C25.3933 10.5302 24.8854 11.5575 24.6651 11.9427V11.9366Z" fill="#450206"/>
<path d="M24.6651 11.9366C24.6345 11.9855 24.6895 12.0406 24.7385 12.01C25.4912 11.5881 27.1987 10.3956 27.1987 8.43273C27.1987 6.62881 27.1987 4.90439 28.2757 3.03321C29.261 1.33325 31.3662 0.526078 32.223 0.263134C32.2842 0.244789 32.2658 0.15918 32.2046 0.15918H30.3993C28.9612 0.15918 25.0384 0.15918 25.0384 4.47635C25.0384 5.91948 25.3933 7.32592 25.3933 9.12984C25.3933 10.5302 24.8854 11.5575 24.6651 11.9427V11.9366Z" fill="black" fill-opacity="0.2"/>
<path d="M8.98607 4.51853C9.38997 4.24947 9.87956 3.93149 9.90404 3.91314C10.106 3.76638 10.1305 3.49121 9.51237 3.49121C9.35326 3.49121 9.10234 3.54013 8.90039 3.61351V4.47572C8.90039 4.51853 8.94935 4.54299 8.98607 4.51853Z" fill="#450206"/>
<path d="M8.98607 4.51853C9.38997 4.24947 9.87956 3.93149 9.90404 3.91314C10.106 3.76638 10.1305 3.49121 9.51237 3.49121C9.35326 3.49121 9.10234 3.54013 8.90039 3.61351V4.47572C8.90039 4.51853 8.94935 4.54299 8.98607 4.51853Z" fill="black" fill-opacity="0.2"/>
<path d="M30.4857 1.95079H45.5526C47.5905 1.95079 48.4534 0.70334 48.8022 0.122418C48.8267 0.0796134 48.79 0.0306937 48.741 0.0429236C48.2759 0.159108 47.615 0.159108 47.615 0.159108H35.7609C33.7659 0.159108 31.6484 1.08858 30.4612 1.85295C30.4183 1.88353 30.4367 1.95079 30.4918 1.95079H30.4857Z" fill="#450206"/>
<path d="M30.4857 1.95079H45.5526C47.5905 1.95079 48.4534 0.70334 48.8022 0.122418C48.8267 0.0796134 48.79 0.0306937 48.741 0.0429236C48.2759 0.159108 47.615 0.159108 47.615 0.159108H35.7609C33.7659 0.159108 31.6484 1.08858 30.4612 1.85295C30.4183 1.88353 30.4367 1.95079 30.4918 1.95079H30.4857Z" fill="black" fill-opacity="0.2"/>
<path d="M47.4804 2.38508C47.5049 2.34227 47.4621 2.28724 47.4131 2.3117C46.9113 2.52572 46.2932 2.67248 45.5527 2.67248H29.4943C29.4943 2.67248 29.4331 2.68471 29.4148 2.70917C29.2189 2.91708 29.0476 3.14333 28.9007 3.39405C28.7049 3.73648 28.5458 4.06669 28.4172 4.3969C28.405 4.43359 28.4295 4.47028 28.4662 4.47028H44.1084C46.1402 4.47028 47.0275 3.14945 47.4743 2.39119L47.4804 2.38508Z" fill="#450206"/>
<path d="M47.4804 2.38508C47.5049 2.34227 47.4621 2.28724 47.4131 2.3117C46.9113 2.52572 46.2932 2.67248 45.5527 2.67248H29.4943C29.4943 2.67248 29.4331 2.68471 29.4148 2.70917C29.2189 2.91708 29.0476 3.14333 28.9007 3.39405C28.7049 3.73648 28.5458 4.06669 28.4172 4.3969C28.405 4.43359 28.4295 4.47028 28.4662 4.47028H44.1084C46.1402 4.47028 47.0275 3.14945 47.4743 2.39119L47.4804 2.38508Z" fill="black" fill-opacity="0.2"/>
<path d="M46.0173 4.90461C46.0418 4.8618 45.999 4.80677 45.95 4.83123C45.4482 5.04525 44.8301 5.19201 44.0896 5.19201H28.2148C28.2148 5.19201 28.1659 5.21036 28.1598 5.23482C28.0251 5.79739 27.9639 6.35997 27.9395 6.93478C27.9395 6.96535 27.9639 6.98981 27.9945 6.98981H42.6514C44.6832 6.98981 45.5706 5.66898 46.0173 4.91072V4.90461Z" fill="#450206"/>
<path d="M46.0173 4.90461C46.0418 4.8618 45.999 4.80677 45.95 4.83123C45.4482 5.04525 44.8301 5.19201 44.0896 5.19201H28.2148C28.2148 5.19201 28.1659 5.21036 28.1598 5.23482C28.0251 5.79739 27.9639 6.35997 27.9395 6.93478C27.9395 6.96535 27.9639 6.98981 27.9945 6.98981H42.6514C44.6832 6.98981 45.5706 5.66898 46.0173 4.91072V4.90461Z" fill="black" fill-opacity="0.2"/>
<path d="M44.5541 7.42316C44.5786 7.38036 44.5357 7.32532 44.4868 7.34978C43.9849 7.56381 43.3668 7.71057 42.6263 7.71057H27.9755C27.9755 7.71057 27.9205 7.73503 27.9205 7.7656C27.9205 7.97962 27.9205 8.19365 27.9205 8.41379V8.43825C27.9205 8.79903 27.8715 9.12924 27.792 9.4411C27.7858 9.47779 27.8103 9.50837 27.8409 9.50837H41.1821C43.2138 9.50837 44.1012 8.18753 44.548 7.42928L44.5541 7.42316Z" fill="#450206"/>
<path d="M44.5541 7.42316C44.5786 7.38036 44.5357 7.32532 44.4868 7.34978C43.9849 7.56381 43.3668 7.71057 42.6263 7.71057H27.9755C27.9755 7.71057 27.9205 7.73503 27.9205 7.7656C27.9205 7.97962 27.9205 8.19365 27.9205 8.41379V8.43825C27.9205 8.79903 27.8715 9.12924 27.792 9.4411C27.7858 9.47779 27.8103 9.50837 27.8409 9.50837H41.1821C43.2138 9.50837 44.1012 8.18753 44.548 7.42928L44.5541 7.42316Z" fill="black" fill-opacity="0.2"/>
<path d="M43.0243 9.86328C42.5225 10.0773 41.9044 10.2241 41.1639 10.2241H27.5657C27.5229 10.2241 27.4862 10.2485 27.4678 10.2852C27.1129 10.9762 26.5988 11.5266 26.1153 11.9301C26.0786 11.9607 26.1031 12.0219 26.1521 12.0219H39.7196C41.7514 12.0219 42.6388 10.701 43.0855 9.94278C43.11 9.89997 43.0672 9.84494 43.0182 9.8694L43.0243 9.86328Z" fill="#450206"/>
<path d="M43.0243 9.86328C42.5225 10.0773 41.9044 10.2241 41.1639 10.2241H27.5657C27.5229 10.2241 27.4862 10.2485 27.4678 10.2852C27.1129 10.9762 26.5988 11.5266 26.1153 11.9301C26.0786 11.9607 26.1031 12.0219 26.1521 12.0219H39.7196C41.7514 12.0219 42.6388 10.701 43.0855 9.94278C43.11 9.89997 43.0672 9.84494 43.0182 9.8694L43.0243 9.86328Z" fill="black" fill-opacity="0.2"/>
<path d="M1.19572 23.8055C1.19572 24.5516 1.01825 24.9429 1.01825 25.64C1.01825 27.0037 2.43803 29.04 4.32905 29.9939H7.55418C9.45132 29.04 10.865 26.9976 10.865 25.64C10.865 24.9429 10.6875 24.5516 10.6875 23.8055C10.6875 22.393 11.63 21.5919 11.8686 21.4085C11.8992 21.3901 11.8992 21.3473 11.8686 21.3229C10.9629 20.5952 10.1918 19.1154 10.0449 18.7852C9.90419 18.4916 9.81851 18.1309 9.39012 18.1309C8.99846 18.1309 8.82098 18.4978 8.93114 18.8341C8.99234 19.0175 9.06577 19.2193 9.06577 19.2193H2.82359C2.82359 19.2193 2.89702 19.0175 2.95822 18.8341C3.06838 18.4978 2.88478 18.1309 2.49924 18.1309C2.06473 18.1309 1.98517 18.4978 1.84441 18.7852C1.69142 19.1093 0.926447 20.5952 0.0207177 21.3229C-0.00376151 21.3473 -0.00988131 21.384 0.0207177 21.4085C0.265509 21.5919 1.20183 22.393 1.20183 23.8055H1.19572ZM2.65835 21.3657H5.22866V21.3779C5.22866 21.5308 5.12462 21.6653 4.97775 21.6959C4.58608 21.7815 4.46981 21.9466 4.62281 22.3257L6.32411 26.5756L7.48687 23.4509C8.01317 22.0322 7.98257 21.7754 7.48687 21.6898C7.33387 21.6653 7.21759 21.5247 7.21759 21.3718H9.23713C9.23713 21.5247 9.13309 21.6592 8.9801 21.6898C8.56395 21.7754 8.45379 22.0444 8.03764 23.1512L6.25679 27.9637H5.79168L3.5702 22.5153C3.34989 21.9649 3.27033 21.7693 2.91538 21.6898C2.7685 21.6592 2.66446 21.5247 2.66446 21.3718L2.65835 21.3657Z" fill="#450206"/>
<path d="M1.19572 23.8055C1.19572 24.5516 1.01825 24.9429 1.01825 25.64C1.01825 27.0037 2.43803 29.04 4.32905 29.9939H7.55418C9.45132 29.04 10.865 26.9976 10.865 25.64C10.865 24.9429 10.6875 24.5516 10.6875 23.8055C10.6875 22.393 11.63 21.5919 11.8686 21.4085C11.8992 21.3901 11.8992 21.3473 11.8686 21.3229C10.9629 20.5952 10.1918 19.1154 10.0449 18.7852C9.90419 18.4916 9.81851 18.1309 9.39012 18.1309C8.99846 18.1309 8.82098 18.4978 8.93114 18.8341C8.99234 19.0175 9.06577 19.2193 9.06577 19.2193H2.82359C2.82359 19.2193 2.89702 19.0175 2.95822 18.8341C3.06838 18.4978 2.88478 18.1309 2.49924 18.1309C2.06473 18.1309 1.98517 18.4978 1.84441 18.7852C1.69142 19.1093 0.926447 20.5952 0.0207177 21.3229C-0.00376151 21.3473 -0.00988131 21.384 0.0207177 21.4085C0.265509 21.5919 1.20183 22.393 1.20183 23.8055H1.19572ZM2.65835 21.3657H5.22866V21.3779C5.22866 21.5308 5.12462 21.6653 4.97775 21.6959C4.58608 21.7815 4.46981 21.9466 4.62281 22.3257L6.32411 26.5756L7.48687 23.4509C8.01317 22.0322 7.98257 21.7754 7.48687 21.6898C7.33387 21.6653 7.21759 21.5247 7.21759 21.3718H9.23713C9.23713 21.5247 9.13309 21.6592 8.9801 21.6898C8.56395 21.7754 8.45379 22.0444 8.03764 23.1512L6.25679 27.9637H5.79168L3.5702 22.5153C3.34989 21.9649 3.27033 21.7693 2.91538 21.6898C2.7685 21.6592 2.66446 21.5247 2.66446 21.3718L2.65835 21.3657Z" fill="black" fill-opacity="0.2"/>
<path d="M6.01863 16.9077C6.01863 16.9077 5.41888 17.3725 5.41888 18.5099H6.48984C6.48984 17.7761 6.81419 17.2074 7.52409 16.9077C7.52409 16.9077 7.08346 17.3725 7.08346 18.5099H8.19115C8.21563 18.2958 8.28907 18.0879 8.41759 17.9106C8.64402 17.5987 8.99896 17.4214 9.39675 17.4214C10.2352 17.4214 10.5106 18.1002 10.6513 18.3753C11.4714 20.008 12.2669 21.5674 14.6598 21.4634C14.7087 21.4634 14.7271 21.4084 14.6965 21.3717C14.1029 20.7418 13.6133 20.0203 13.2522 19.2253C13.0258 18.7361 12.8606 18.2286 12.7504 17.7149L12.1017 17.0667C11.655 16.6203 11.2817 16.125 10.9818 15.5869H7.31602C5.51068 15.5869 3.69922 16.7977 3.69922 18.5038H4.82526C4.82526 17.77 5.3026 17.2013 6.0125 16.9016L6.01863 16.9077Z" fill="#450206"/>
<path d="M6.01863 16.9077C6.01863 16.9077 5.41888 17.3725 5.41888 18.5099H6.48984C6.48984 17.7761 6.81419 17.2074 7.52409 16.9077C7.52409 16.9077 7.08346 17.3725 7.08346 18.5099H8.19115C8.21563 18.2958 8.28907 18.0879 8.41759 17.9106C8.64402 17.5987 8.99896 17.4214 9.39675 17.4214C10.2352 17.4214 10.5106 18.1002 10.6513 18.3753C11.4714 20.008 12.2669 21.5674 14.6598 21.4634C14.7087 21.4634 14.7271 21.4084 14.6965 21.3717C14.1029 20.7418 13.6133 20.0203 13.2522 19.2253C13.0258 18.7361 12.8606 18.2286 12.7504 17.7149L12.1017 17.0667C11.655 16.6203 11.2817 16.125 10.9818 15.5869H7.31602C5.51068 15.5869 3.69922 16.7977 3.69922 18.5038H4.82526C4.82526 17.77 5.3026 17.2013 6.0125 16.9016L6.01863 16.9077Z" fill="black" fill-opacity="0.2"/>
<path d="M16.6185 2.69026C16.5267 3.3996 16.2697 4.03556 15.8536 4.61648C15.162 5.58264 14.3603 6.44485 13.4974 7.25815C13.1976 7.53943 12.8916 7.82684 12.6101 8.12647C10.2784 10.4563 10.2784 14.2353 12.6101 16.5651C12.6101 14.7918 13.3812 13.2019 14.6112 12.1073C14.2869 12.5598 14.0115 13.0551 13.7973 13.5871C12.3102 17.2683 14.2563 21.3593 18.1546 22.7963C18.2036 22.8146 18.2464 22.7596 18.2158 22.7168C17.6099 21.8301 16.5941 20.1791 16.5941 18.1367C16.5941 16.0943 17.4753 15.2626 17.4753 15.2626C17.4753 15.2626 17.1265 16.2594 17.1265 17.4212C17.1265 18.0939 17.2489 18.9683 17.5304 19.6776C17.5549 19.6776 17.5732 19.6715 17.5793 19.6715C17.5793 19.6715 17.5793 19.6715 17.5855 19.6715C17.5855 19.6715 17.5855 19.6715 17.5916 19.6715C17.5977 19.6715 17.6161 19.6715 17.6405 19.6654C17.7078 18.2834 18.1485 16.9259 18.9563 15.6234C20.0395 13.8745 21.6306 12.676 23.6869 12.0767C23.7114 12.0706 23.7297 12.0584 23.742 12.0339L23.9806 11.7098C23.9806 11.7098 24.6844 10.6764 24.6844 9.14155C24.6844 6.76283 24.0174 4.40246 23.1667 3.17946C22.5731 2.29891 21.649 1.6813 20.5964 1.41224C20.8045 1.36943 21.0248 1.35109 21.2451 1.35109C22.0407 1.35109 22.7812 1.61403 23.3748 2.05431C23.3993 2.07265 23.436 2.04208 23.4176 2.0115C22.6037 0.80074 21.2267 0.170898 19.6662 0.170898C18.4545 0.170898 17.359 0.470532 16.5451 1.25325C16.5329 1.26548 16.5267 1.28994 16.5329 1.30828C16.5696 1.44281 16.7165 2.00539 16.6247 2.70861L16.6185 2.69026ZM19.7702 1.99927C20.2721 2.15215 20.5474 2.71473 20.3638 3.21615C20.2598 3.51579 20.0517 3.72981 19.7457 3.8888C19.7641 3.8093 19.7763 3.75427 19.7947 3.69923C19.8681 3.44241 19.862 3.18558 19.7702 2.93486C19.6295 2.53128 19.2868 2.28056 18.8584 2.27445C18.7911 2.27445 18.7176 2.27445 18.6503 2.27445C18.9869 2.00539 19.3541 1.87697 19.7702 2.00539V1.99927Z" fill="#450206"/>
<path d="M16.6185 2.69026C16.5267 3.3996 16.2697 4.03556 15.8536 4.61648C15.162 5.58264 14.3603 6.44485 13.4974 7.25815C13.1976 7.53943 12.8916 7.82684 12.6101 8.12647C10.2784 10.4563 10.2784 14.2353 12.6101 16.5651C12.6101 14.7918 13.3812 13.2019 14.6112 12.1073C14.2869 12.5598 14.0115 13.0551 13.7973 13.5871C12.3102 17.2683 14.2563 21.3593 18.1546 22.7963C18.2036 22.8146 18.2464 22.7596 18.2158 22.7168C17.6099 21.8301 16.5941 20.1791 16.5941 18.1367C16.5941 16.0943 17.4753 15.2626 17.4753 15.2626C17.4753 15.2626 17.1265 16.2594 17.1265 17.4212C17.1265 18.0939 17.2489 18.9683 17.5304 19.6776C17.5549 19.6776 17.5732 19.6715 17.5793 19.6715C17.5793 19.6715 17.5793 19.6715 17.5855 19.6715C17.5855 19.6715 17.5855 19.6715 17.5916 19.6715C17.5977 19.6715 17.6161 19.6715 17.6405 19.6654C17.7078 18.2834 18.1485 16.9259 18.9563 15.6234C20.0395 13.8745 21.6306 12.676 23.6869 12.0767C23.7114 12.0706 23.7297 12.0584 23.742 12.0339L23.9806 11.7098C23.9806 11.7098 24.6844 10.6764 24.6844 9.14155C24.6844 6.76283 24.0174 4.40246 23.1667 3.17946C22.5731 2.29891 21.649 1.6813 20.5964 1.41224C20.8045 1.36943 21.0248 1.35109 21.2451 1.35109C22.0407 1.35109 22.7812 1.61403 23.3748 2.05431C23.3993 2.07265 23.436 2.04208 23.4176 2.0115C22.6037 0.80074 21.2267 0.170898 19.6662 0.170898C18.4545 0.170898 17.359 0.470532 16.5451 1.25325C16.5329 1.26548 16.5267 1.28994 16.5329 1.30828C16.5696 1.44281 16.7165 2.00539 16.6247 2.70861L16.6185 2.69026ZM19.7702 1.99927C20.2721 2.15215 20.5474 2.71473 20.3638 3.21615C20.2598 3.51579 20.0517 3.72981 19.7457 3.8888C19.7641 3.8093 19.7763 3.75427 19.7947 3.69923C19.8681 3.44241 19.862 3.18558 19.7702 2.93486C19.6295 2.53128 19.2868 2.28056 18.8584 2.27445C18.7911 2.27445 18.7176 2.27445 18.6503 2.27445C18.9869 2.00539 19.3541 1.87697 19.7702 2.00539V1.99927Z" fill="black" fill-opacity="0.2"/>
<path d="M8.98529 7.65601C9.2362 7.50314 9.98281 7.06897 10.399 7.06897C10.7539 7.06897 11.0048 7.34415 11.0048 7.70493V8.84843C11.0048 8.90346 11.0721 8.92181 11.1027 8.879C12.3757 6.77546 15.9251 4.86759 15.9251 2.177C15.9251 1.84068 15.8639 1.60831 15.8272 1.49212C15.815 1.4432 15.766 1.41263 15.7171 1.41874C13.1284 1.60831 13.9423 2.0547 10.5152 3.15539C10.4908 3.16151 10.4846 3.1982 10.5152 3.21043C10.6254 3.26546 10.8335 3.40611 10.8335 3.62013C10.8335 3.74243 10.7906 3.87696 10.6132 4.01149C10.4112 4.16436 9.33412 4.93485 9.14441 5.06938C9.12605 5.08161 9.12605 5.09995 9.14441 5.1183C9.28516 5.24671 9.79922 5.70534 9.92774 5.82152C10.0379 5.92548 10.1848 6.05389 10.3133 6.17007C10.2092 6.2618 10.0685 6.35352 9.90326 6.35352C9.69518 6.35352 9.50547 6.23122 9.40144 6.1395C9.2362 5.99274 9.14441 5.91325 9.00977 5.79706C8.97305 5.76649 8.91797 5.79706 8.91797 5.83987V7.61932C8.91797 7.66213 8.96693 7.68659 8.99753 7.66824L8.98529 7.65601ZM13.6731 2.67231C14.1504 2.67231 14.4564 2.99029 14.5543 3.39388H12.749C12.804 3.08202 13.2141 2.67231 13.6669 2.67231H13.6731Z" fill="#450206"/>
<path d="M8.98529 7.65601C9.2362 7.50314 9.98281 7.06897 10.399 7.06897C10.7539 7.06897 11.0048 7.34415 11.0048 7.70493V8.84843C11.0048 8.90346 11.0721 8.92181 11.1027 8.879C12.3757 6.77546 15.9251 4.86759 15.9251 2.177C15.9251 1.84068 15.8639 1.60831 15.8272 1.49212C15.815 1.4432 15.766 1.41263 15.7171 1.41874C13.1284 1.60831 13.9423 2.0547 10.5152 3.15539C10.4908 3.16151 10.4846 3.1982 10.5152 3.21043C10.6254 3.26546 10.8335 3.40611 10.8335 3.62013C10.8335 3.74243 10.7906 3.87696 10.6132 4.01149C10.4112 4.16436 9.33412 4.93485 9.14441 5.06938C9.12605 5.08161 9.12605 5.09995 9.14441 5.1183C9.28516 5.24671 9.79922 5.70534 9.92774 5.82152C10.0379 5.92548 10.1848 6.05389 10.3133 6.17007C10.2092 6.2618 10.0685 6.35352 9.90326 6.35352C9.69518 6.35352 9.50547 6.23122 9.40144 6.1395C9.2362 5.99274 9.14441 5.91325 9.00977 5.79706C8.97305 5.76649 8.91797 5.79706 8.91797 5.83987V7.61932C8.91797 7.66213 8.96693 7.68659 8.99753 7.66824L8.98529 7.65601ZM13.6731 2.67231C14.1504 2.67231 14.4564 2.99029 14.5543 3.39388H12.749C12.804 3.08202 13.2141 2.67231 13.6669 2.67231H13.6731Z" fill="black" fill-opacity="0.2"/>
</svg>
